<svg width="228" height="163" viewBox="0 0 228 163" fill="none" xmlns="http://www.w3.org/2000/svg">
<path fill-rule="evenodd" clip-rule="evenodd" d="M13.936 12.7235C13.936 11.7716 14.7077 11 15.6595 11H42.2696C43.2215 11 43.9931 11.7716 43.9931 12.7235C43.9931 13.6754 43.2215 14.447 42.2696 14.447H15.6595C14.7077 14.447 13.936 13.6754 13.936 12.7235Z" fill="#E1CA72"/>
<path fill-rule="evenodd" clip-rule="evenodd" d="M13.936 24.4788C13.936 23.527 14.7077 22.7553 15.6595 22.7553H42.2696C43.2215 22.7553 43.9931 23.527 43.9931 24.4788C43.9931 25.4307 43.2215 26.2024 42.2696 26.2024H15.6595C14.7077 26.2024 13.936 25.4307 13.936 24.4788Z" fill="#E1CA72"/>
<path fill-rule="evenodd" clip-rule="evenodd" d="M28.7194 36.234C28.7194 35.2821 29.491 34.5105 30.4429 34.5105H74.793C75.7449 34.5105 76.5165 35.2821 76.5165 36.234C76.5165 37.1859 75.7449 37.9575 74.793 37.9575H30.4429C29.491 37.9575 28.7194 37.1859 28.7194 36.234Z" fill="#9F8198"/>
<path fill-rule="evenodd" clip-rule="evenodd" d="M28.7194 71.5C28.7194 70.5481 29.491 69.7764 30.4429 69.7764H98.4464C99.3982 69.7764 100.17 70.5481 100.17 71.5C100.17 72.4518 99.3982 73.2235 98.4464 73.2235H30.4429C29.491 73.2235 28.7194 72.4518 28.7194 71.5Z" fill="#9F8198"/>
<path fill-rule="evenodd" clip-rule="evenodd" d="M28.7194 83.2552C28.7194 82.3033 29.491 81.5317 30.4429 81.5317H68.8796C69.8315 81.5317 70.6031 82.3033 70.6031 83.2552C70.6031 84.2071 69.8315 84.9787 68.8796 84.9787H30.4429C29.491 84.9787 28.7194 84.2071 28.7194 83.2552Z" fill="#9F8198"/>
<path fill-rule="evenodd" clip-rule="evenodd" d="M28.7194 106.766C28.7194 105.814 29.491 105.042 30.4429 105.042H86.6196C87.5715 105.042 88.3432 105.814 88.3432 106.766C88.3432 107.718 87.5715 108.489 86.6196 108.489H30.4429C29.491 108.489 28.7194 107.718 28.7194 106.766Z" fill="#9F8198"/>
<path fill-rule="evenodd" clip-rule="evenodd" d="M28.7194 118.521C28.7194 117.569 29.491 116.798 30.4429 116.798H86.6196C87.5715 116.798 88.3432 117.569 88.3432 118.521C88.3432 119.473 87.5715 120.245 86.6196 120.245H30.4429C29.491 120.245 28.7194 119.473 28.7194 118.521Z" fill="#9F8198"/>
<path fill-rule="evenodd" clip-rule="evenodd" d="M28.7194 95.0105C28.7194 94.0586 29.491 93.287 30.4429 93.287H116.186C117.138 93.287 117.91 94.0586 117.91 95.0105C117.91 95.9624 117.138 96.734 116.186 96.734H30.4429C29.491 96.734 28.7194 95.9624 28.7194 95.0105Z" fill="#9F8198"/>
<path fill-rule="evenodd" clip-rule="evenodd" d="M13.936 59.7447C13.936 58.7928 14.7077 58.0212 15.6595 58.0212H42.2696C43.2215 58.0212 43.9931 58.7928 43.9931 59.7447C43.9931 60.6966 43.2215 61.4682 42.2696 61.4682H15.6595C14.7077 61.4682 13.936 60.6966 13.936 59.7447Z" fill="#E1CA72"/>
<path fill-rule="evenodd" clip-rule="evenodd" d="M87.8528 83.2552C87.8528 82.3033 88.6245 81.5317 89.5763 81.5317H110.273C111.225 81.5317 111.997 82.3033 111.997 83.2552C111.997 84.2071 111.225 84.9787 110.273 84.9787H89.5763C88.6245 84.9787 87.8528 84.2071 87.8528 83.2552Z" fill="#E1CA72"/>
<path fill-rule="evenodd" clip-rule="evenodd" d="M94.3574 36.234C94.3574 35.2821 95.1291 34.5105 96.0809 34.5105H116.778C117.73 34.5105 118.501 35.2821 118.501 36.234C118.501 37.1859 117.73 37.9575 116.778 37.9575H96.0809C95.1291 37.9575 94.3574 37.1859 94.3574 36.234Z" fill="#DE7300"/>
<path fill-rule="evenodd" clip-rule="evenodd" d="M117.42 71.5C117.42 70.5481 118.191 69.7764 119.143 69.7764H151.667C152.618 69.7764 153.39 70.5481 153.39 71.5C153.39 72.4518 152.618 73.2235 151.667 73.2235H119.143C118.191 73.2235 117.42 72.4518 117.42 71.5Z" fill="#7A99AD"/>
<path fill-rule="evenodd" clip-rule="evenodd" d="M135.159 95.0105C135.159 94.0586 135.931 93.287 136.883 93.287H166.45C167.402 93.287 168.173 94.0586 168.173 95.0105C168.173 95.9624 167.402 96.734 166.45 96.734H136.883C135.931 96.734 135.159 95.9624 135.159 95.0105Z" fill="#E1CA72"/>
<path fill-rule="evenodd" clip-rule="evenodd" d="M105.593 106.766C105.593 105.814 106.364 105.042 107.316 105.042H136.883C137.835 105.042 138.607 105.814 138.607 106.766C138.607 107.718 137.835 108.489 136.883 108.489H107.316C106.364 108.489 105.593 107.718 105.593 106.766Z" fill="#E1CA72"/>
<path fill-rule="evenodd" clip-rule="evenodd" d="M105.593 118.521C105.593 117.569 106.364 116.798 107.316 116.798H160.536C161.488 116.798 162.26 117.569 162.26 118.521C162.26 119.473 161.488 120.245 160.536 120.245H107.316C106.364 120.245 105.593 119.473 105.593 118.521Z" fill="#E1CA72"/>
<path fill-rule="evenodd" clip-rule="evenodd" d="M13.936 47.9894C13.936 47.0375 14.7077 46.2659 15.6595 46.2659H24.5295C25.4814 46.2659 26.2531 47.0375 26.2531 47.9894C26.2531 48.9413 25.4814 49.7129 24.5295 49.7129H15.6595C14.7077 49.7129 13.936 48.9413 13.936 47.9894Z" fill="white"/>
<path fill-rule="evenodd" clip-rule="evenodd" d="M13.936 130.277C13.936 129.325 14.7077 128.553 15.6595 128.553H24.5295C25.4814 128.553 26.2531 129.325 26.2531 130.277C26.2531 131.228 25.4814 132 24.5295 132H15.6595C14.7077 132 13.936 131.228 13.936 130.277Z" fill="white"/>
<path fill-rule="evenodd" clip-rule="evenodd" d="M49.4161 12.7235C49.4161 11.7716 50.1878 11 51.1396 11H54.0963C55.0482 11 55.8198 11.7716 55.8198 12.7235C55.8198 13.6754 55.0482 14.447 54.0963 14.447H51.1396C50.1878 14.447 49.4161 13.6754 49.4161 12.7235Z" fill="white"/>
<path fill-rule="evenodd" clip-rule="evenodd" d="M81.9395 36.234C81.9395 35.2821 82.7111 34.5105 83.663 34.5105H86.6197C87.5716 34.5105 88.3432 35.2821 88.3432 36.234C88.3432 37.1859 87.5716 37.9575 86.6197 37.9575H83.663C82.7111 37.9575 81.9395 37.1859 81.9395 36.234Z" fill="white"/>
<path fill-rule="evenodd" clip-rule="evenodd" d="M123.924 36.234C123.924 35.2821 124.696 34.5105 125.648 34.5105H128.604C129.556 34.5105 130.328 35.2821 130.328 36.234C130.328 37.1859 129.556 37.9575 128.604 37.9575H125.648C124.696 37.9575 123.924 37.1859 123.924 36.234Z" fill="white"/>
<path fill-rule="evenodd" clip-rule="evenodd" d="M105.593 71.5C105.593 70.5481 106.364 69.7764 107.316 69.7764H110.273C111.225 69.7764 111.997 70.5481 111.997 71.5C111.997 72.4518 111.225 73.2235 110.273 73.2235H107.316C106.364 73.2235 105.593 72.4518 105.593 71.5Z" fill="white"/>
<path fill-rule="evenodd" clip-rule="evenodd" d="M158.813 71.5C158.813 70.5481 159.585 69.7764 160.536 69.7764H163.493C164.445 69.7764 165.217 70.5481 165.217 71.5C165.217 72.4518 164.445 73.2235 163.493 73.2235H160.536C159.585 73.2235 158.813 72.4518 158.813 71.5Z" fill="white"/>
<path fill-rule="evenodd" clip-rule="evenodd" d="M76.0261 83.2552C76.0261 82.3033 76.7978 81.5317 77.7496 81.5317H80.7063C81.6582 81.5317 82.4298 82.3033 82.4298 83.2552C82.4298 84.2071 81.6582 84.9787 80.7063 84.9787H77.7496C76.7978 84.9787 76.0261 84.2071 76.0261 83.2552Z" fill="white"/>
<path fill-rule="evenodd" clip-rule="evenodd" d="M117.42 83.2552C117.42 82.3033 118.191 81.5317 119.143 81.5317H122.1C123.052 81.5317 123.823 82.3033 123.823 83.2552C123.823 84.2071 123.052 84.9787 122.1 84.9787H119.143C118.191 84.9787 117.42 84.2071 117.42 83.2552Z" fill="white"/>
<path fill-rule="evenodd" clip-rule="evenodd" d="M93.7661 106.766C93.7661 105.814 94.5378 105.042 95.4897 105.042H98.4463C99.3982 105.042 100.17 105.814 100.17 106.766C100.17 107.718 99.3982 108.489 98.4463 108.489H95.4897C94.5378 108.489 93.7661 107.718 93.7661 106.766Z" fill="white"/>
<path fill-rule="evenodd" clip-rule="evenodd" d="M144.03 106.766C144.03 105.814 144.801 105.042 145.753 105.042H148.71C149.662 105.042 150.433 105.814 150.433 106.766C150.433 107.718 149.662 108.489 148.71 108.489H145.753C144.801 108.489 144.03 107.718 144.03 106.766Z" fill="white"/>
<path fill-rule="evenodd" clip-rule="evenodd" d="M93.7661 118.521C93.7661 117.569 94.5378 116.798 95.4897 116.798H98.4463C99.3982 116.798 100.17 117.569 100.17 118.521C100.17 119.473 99.3982 120.245 98.4463 120.245H95.4897C94.5378 120.245 93.7661 119.473 93.7661 118.521Z" fill="white"/>
<path fill-rule="evenodd" clip-rule="evenodd" d="M167.683 118.521C167.683 117.569 168.454 116.798 169.406 116.798H172.363C173.315 116.798 174.087 117.569 174.087 118.521C174.087 119.473 173.315 120.245 172.363 120.245H169.406C168.454 120.245 167.683 119.473 167.683 118.521Z" fill="white"/>
<path fill-rule="evenodd" clip-rule="evenodd" d="M123.333 95.0105C123.333 94.0586 124.105 93.287 125.056 93.287H128.013C128.965 93.287 129.737 94.0586 129.737 95.0105C129.737 95.9624 128.965 96.734 128.013 96.734H125.056C124.105 96.734 123.333 95.9624 123.333 95.0105Z" fill="white"/>
<path fill-rule="evenodd" clip-rule="evenodd" d="M173.596 95.0105C173.596 94.0586 174.368 93.287 175.32 93.287H178.276C179.228 93.287 180 94.0586 180 95.0105C180 95.9624 179.228 96.734 178.276 96.734H175.32C174.368 96.734 173.596 95.9624 173.596 95.0105Z" fill="white"/>
<path fill-rule="evenodd" clip-rule="evenodd" d="M49.4161 24.4788C49.4161 23.527 50.1878 22.7553 51.1396 22.7553H60.0096C60.9615 22.7553 61.7332 23.527 61.7332 24.4788C61.7332 25.4307 60.9615 26.2024 60.0096 26.2024H51.1396C50.1878 26.2024 49.4161 25.4307 49.4161 24.4788Z" fill="white"/>
<path fill-rule="evenodd" clip-rule="evenodd" d="M49.4161 59.7447C49.4161 58.7928 50.1878 58.0212 51.1396 58.0212H60.0096C60.9615 58.0212 61.7332 58.7928 61.7332 59.7447C61.7332 60.6966 60.9615 61.4682 60.0096 61.4682H51.1396C50.1878 61.4682 49.4161 60.6966 49.4161 59.7447Z" fill="white"/>
<mask id="mask0" mask-type="alpha" maskUnits="userSpaceOnUse" x="0" y="0" width="228" height="163">
<rect width="228" height="163" rx="10" fill="#202125"/>
</mask>
<g mask="url(#mask0)">
<path d="M178.5 16H197L228.5 56V163.5H50.5L178.5 16Z" fill="url(#paint0_linear)"/>
</g>
<path d="M198.411 21.187C198.411 27.0377 193.623 31.7806 187.717 31.7806C181.81 31.7806 177.022 27.0377 177.022 21.187C177.022 18.5223 178.016 16.0873 179.655 14.2256C180.722 13.0149 182.196 9.6856 182.196 5.75079C182.196 5.75079 181.061 5.90695 180.974 5.14544C181.585 3.63208 181.866 2.6141 183.419 1.15745e-06C184.556 8.38474e-06 190.251 -3.61479e-06 191.669 1.15745e-06C193.807 4.5401 195.03 5.75079 192.911 5.75079C192.911 10.2909 194.712 13.0149 195.778 14.2256C197.418 16.0873 198.411 18.5223 198.411 21.187Z" fill="#968836"/>
<path fill-rule="evenodd" clip-rule="evenodd" d="M185.812 6.5C186.089 6.5 186.312 6.72386 186.312 7V18.875H188.688V7C188.688 6.72386 188.911 6.5 189.188 6.5C189.464 6.5 189.688 6.72386 189.688 7V18.875H190.594C191.647 18.875 192.5 19.7285 192.5 20.7812C192.5 21.834 191.647 22.6875 190.594 22.6875C189.541 22.6875 188.688 21.834 188.688 20.7812V19.875H186.312V20.7812C186.312 21.834 185.459 22.6875 184.406 22.6875C183.353 22.6875 182.5 21.834 182.5 20.7812C182.5 19.7285 183.353 18.875 184.406 18.875H185.312V7C185.312 6.72386 185.536 6.5 185.812 6.5ZM185.312 19.875H184.406C183.906 19.875 183.5 20.2807 183.5 20.7812C183.5 21.2818 183.906 21.6875 184.406 21.6875C184.907 21.6875 185.312 21.2818 185.312 20.7812V19.875ZM189.688 19.875V20.7812C189.688 21.2818 190.093 21.6875 190.594 21.6875C191.094 21.6875 191.5 21.2818 191.5 20.7812C191.5 20.2807 191.094 19.875 190.594 19.875H189.688Z" fill="#504511"/>
<defs>
<linearGradient id="paint0_linear" x1="114.5" y1="16" x2="114.5" y2="170.5" gradientUnits="userSpaceOnUse">
<stop stop-color="#6A6033"/>
<stop offset="1" stop-color="#6A6033" stop-opacity="0"/>
</linearGradient>
</defs>
</svg>
